<?xml version="1.0" encoding="utf-8"?>
<!-- Generator: Adobe Illustrator 26.0.1, SVG Export Plug-In . SVG Version: 6.00 Build 0)  -->
<svg version="1.1" id="Layer_1" xmlns="http://www.w3.org/2000/svg" xmlns:xlink="http://www.w3.org/1999/xlink" x="0px" y="0px"
	 viewBox="0 0 16 16" style="enable-background:new 0 0 16 16;" xml:space="preserve">
<style type="text/css">
	.st0{fill-rule:evenodd;clip-rule:evenodd;fill:#2A286B;}
</style>
<path id="_92678544" class="st0" d="M1.72,12c-1.1-0.19-2.23-1.68-1.46-3.43c0,0,0.5-0.96,1.35-1.15c0.85-0.19,1.66-0.19,1.66-0.19
	C3.23,3.88,7.74,3.6,8.97,4.93c0.59,0.64,0.8,0.91,0.8,0.91s2.05-0.47,2.81,0.38c0.76,0.86,0.98,1.98,0.98,1.98
	c0.71-0.33,2.73,0.64,2.41,2.45c-0.19,1.05-1.65,1.53-1.65,1.53L1.72,12L1.72,12z"/>
</svg>
