<?xml version="1.0" encoding="utf-8"?>
<!-- Generator: Adobe Illustrator 26.0.1, SVG Export Plug-In . SVG Version: 6.00 Build 0)  -->
<svg version="1.1" id="Layer_1" xmlns="http://www.w3.org/2000/svg" xmlns:xlink="http://www.w3.org/1999/xlink" x="0px" y="0px"
	 viewBox="0 0 16 16" style="enable-background:new 0 0 16 16;" xml:space="preserve">
<style type="text/css">
	.st0{fill-rule:evenodd;clip-rule:evenodd;fill:#2A286B;}
</style>
<path class="st0" d="M2.1,6.3C2.1,6.3,2,6.3,2.1,6.3c0,0-0.8,0-1.7,0.2C-0.5,6.7-1,7.7-1,7.7c-0.8,1.8,0.4,3.2,1.5,3.4l3.6,0.1
	C4.4,9.4,3.6,7.3,2.1,6.3z M-0.7,9.8h1H-0.7z"/>
<path class="st0" d="M7.1,3.5C5.3,3,2.4,3.6,2.4,6.3c1.4,0.9,2.3,2.8,2.1,4.6C6.7,9.1,7,6.1,7.1,3.5z"/>
<path class="st0" d="M7.4,3.5C7.4,6.1,7,9.1,4.8,10.9c0,0.1,0,0.2,0,0.3l5.3,0.1c-0.8-2-1.6-5.2-2.5-7.7C7.5,3.6,7.5,3.5,7.4,3.5z"
	/>
<path class="st0" d="M13.7,7.2c0,0-0.2-1.1-1-2C12.6,5,12.3,4.9,12,4.8c0.6,2.1,0.7,4.4-1.2,6.3l3.6,0.1c0,0,1.5-0.5,1.6-1.5
	C16.4,7.8,14.4,6.9,13.7,7.2z"/>
<path class="st0" d="M11.7,4.9c-0.9-0.2-2.1,0-2.1,0S9.4,4.7,8.8,4C8.6,3.8,8.3,3.7,8,3.5c0.8,2.5,1.6,5.7,2.5,7.7l0.1,0
	C12.4,9.3,12.3,7,11.7,4.9z"/>
</svg>
